<svg width="0" height="0" class="hidden">
  <symbol version="1.0" xmlns="http://www.w3.org/2000/svg" preserveAspectRatio="xMidYMid meet" viewBox="0 0 512.000000 512.000000" id="info-train">
    <g transform="translate(0.000000,512.000000) scale(0.100000,-0.100000)" fill="#000000" stroke="none">
      <path d="M2125 5110 c-683 -33 -1127 -152 -1408 -377 -93 -74 -169 -170 -221
-278 -52 -105 -75 -192 -87 -325 -12 -140 -11 -2605 1 -2729 48 -464 403 -819
858 -858 l74 -6 -201 -201 -201 -201 0 -68 0 -67 303 0 302 0 270 270 270 270
505 0 505 0 270 -270 270 -270 272 0 273 0 0 67 0 68 -201 201 -201 201 74 6
c382 33 717 306 822 670 46 158 48 225 43 1647 -3 1316 -4 1336 -24 1421 -44
176 -107 294 -223 410 -231 232 -592 353 -1210 404 -209 18 -894 27 -1135 15z
m165 -1610 l0 -540 -672 2 -673 3 -3 538 -2 537 675 0 675 0 0 -540z m1888 3
l-3 -538 -672 -3 -673 -2 0 540 0 540 675 0 675 0 -2 -537z m-2718 -1635 c242
-72 357 -337 246 -563 -122 -246 -448 -301 -641 -108 -87 87 -132 221 -115
342 34 240 279 398 510 329z m2422 0 c27 -5 74 -27 106 -48 175 -113 234 -322
144 -514 -91 -195 -329 -280 -525 -188 -90 42 -150 100 -193 187 -101 205 -16
446 191 541 91 42 162 48 277 22z"></path>
    </g>
  </symbol>
</svg>