<svg width="0" height="0" class="hidden">
  <symbol version="1.0" xmlns="http://www.w3.org/2000/svg" preserveAspectRatio="xMidYMid meet" viewBox="0 0 226.000000 223.000000" id="info-bus">
    <g transform="translate(0.000000,223.000000) scale(0.100000,-0.100000)" fill="#000000" stroke="none">
      <path d="M834 2221 c-194 -13 -325 -32 -376 -53 -109 -46 -187 -125 -209 -210
-12 -46 -13 -47 -62 -53 -55 -8 -97 -40 -97 -75 0 -13 -7 -20 -18 -20 -10 0
-29 -12 -43 -26 -23 -24 -24 -33 -27 -166 -3 -96 0 -150 9 -170 15 -36 60 -58
119 -58 l40 0 0 208 c0 215 3 232 42 232 17 0 18 -33 18 -712 0 -463 4 -726
11 -750 13 -49 49 -68 128 -68 l59 0 4 -115 c3 -114 3 -115 35 -147 30 -30 39
-33 107 -36 86 -5 126 11 156 61 16 26 20 50 20 135 l0 102 380 0 380 0 0
-106 c0 -155 32 -194 157 -194 124 0 163 48 163 201 l0 97 75 4 c61 3 79 7 97
26 l23 23 3 739 c2 700 4 740 20 740 39 0 42 -17 42 -232 l0 -208 40 0 c59 0
104 22 119 58 9 20 12 74 9 170 -3 133 -4 142 -27 166 -14 14 -33 26 -43 26
-11 0 -18 7 -18 20 0 35 -42 67 -97 75 -49 6 -50 7 -62 53 -22 85 -87 153
-193 201 -51 24 -91 33 -207 46 -167 18 -601 27 -777 16z m561 -171 l0 -65
-265 0 -265 0 -3 54 c-2 29 -1 60 2 67 5 12 52 14 268 12 l263 -3 0 -65z m513
-182 c9 -9 12 -115 12 -417 0 -224 -4 -411 -8 -418 -10 -16 -45 -28 -163 -58
-332 -84 -699 -100 -1024 -45 -141 24 -354 76 -372 92 -10 8 -13 94 -13 428 0
229 3 420 7 423 3 4 353 7 778 7 586 0 774 -3 783 -12z m-1519 -1079 c121 -68
252 -162 249 -178 -4 -19 6 -18 -168 -7 -99 6 -140 12 -152 23 -32 28 -22 193
11 193 2 0 29 -14 60 -31z m1565 15 c3 -9 6 -49 6 -90 0 -65 -2 -75 -22 -88
-19 -12 -167 -27 -303 -31 -5 0 -11 7 -13 16 -3 18 70 72 210 155 99 58 113
62 122 38z m-1562 -311 c25 -22 23 -50 -6 -68 -47 -31 -95 26 -55 66 23 23 37
24 61 2z m933 -33 l0 -45 -190 0 -190 0 -3 33 c-6 64 -11 63 195 60 l188 -3 0
-45z m587 33 c10 -9 18 -24 18 -34 0 -17 -35 -49 -52 -49 -11 0 -48 38 -48 50
0 14 37 50 52 50 6 0 20 -7 30 -17z"></path>
    </g>
  </symbol>
</svg>