<svg width="90" height="144" viewBox="0 0 90 144" fill="none" xmlns="http://www.w3.org/2000/svg">
<path d="M31.8453 105.324C28.0971 100.863 25.0272 97.0527 22.6356 93.8925C18.1708 87.992 14.1246 81.9316 10.4972 75.7114C8.81604 72.8301 7.20621 69.756 5.66774 66.4893C3.62742 62.1524 2.0811 57.7646 1.02879 53.3258C-0.0329246 48.8511 -0.272871 44.2627 0.308957 39.5607C1.12916 32.9316 3.30514 26.7914 6.83688 21.1399C10.3482 15.5245 14.8515 10.9182 20.3467 7.32081C24.912 4.33293 29.8614 2.24674 35.1951 1.06224C36.7007 0.726949 38.2478 0.471562 39.8364 0.296081C48.556 -0.669065 56.842 0.725382 64.6943 4.47942C66.1293 5.16568 67.5046 5.91852 68.8204 6.73796C73.7997 9.84021 78.0301 13.7846 81.5116 18.5712C85.3351 23.8278 87.8976 29.7283 89.1993 36.2728C89.5835 38.2 89.8235 40.0606 89.9191 41.8545C90.0054 43.4354 90.0226 45.003 89.9709 46.5573C89.905 48.5722 89.6517 50.5698 89.2111 52.5503C88.3391 56.4704 87.108 60.2753 85.5178 63.9651C84.0687 67.329 82.4377 70.6021 80.6248 73.7842C75.4714 82.8294 69.3364 91.7366 62.2196 100.506C56.3354 107.757 50.634 114.188 45.1152 119.799C45.0705 119.843 44.9952 119.843 44.9506 119.799C40.8182 115.629 36.4497 110.804 31.8453 105.324Z" fill="#0677E0"/>
<ellipse cx="44.4944" cy="46.3216" rx="33.3708" ry="33.2308" fill="white"/>
<ellipse cx="44.4944" cy="137.958" rx="32.3596" ry="6.04196" fill="url(#paint0_radial_512_522)" fill-opacity="0.1"/>
<path d="M59.602 40.0035C59.6019 41.1971 59.0272 41.7939 57.8778 41.7939H51.7783C50.6275 41.7939 50.0522 41.1971 50.0522 40.0035V37.1012C50.0522 35.9479 50.6275 35.3712 51.7783 35.3711H57.8778C59.0272 35.3712 59.6019 35.9479 59.602 37.1012V40.0035ZM42.2285 40.0657C42.2285 41.2179 41.6325 41.7939 40.4404 41.7939H27.2561C26.1054 41.7939 25.5301 41.2179 25.5301 40.0657V37.1012C25.5301 35.9479 26.1054 35.3712 27.2561 35.3711H40.4404C41.6325 35.3712 42.2285 35.9479 42.2285 37.1012V40.0657ZM69.2758 53.961H64.8384V38.5222C64.8384 36.1338 64.0067 34.1163 62.3434 32.4698C60.6799 30.8233 58.6775 30 56.336 30H27.5025C25.1196 30 23.1068 30.8233 21.4641 32.4698C19.8213 34.1163 19 36.1338 19 38.5222V49.453C19 51.1818 19.6161 52.6637 20.8483 53.8988C22.0805 55.1338 23.559 55.7514 25.2838 55.7514H35.2039C35.3268 53.9811 36.025 52.4784 37.2985 51.2434C38.5721 50.0083 40.1126 49.3908 41.9202 49.3908C43.6863 49.3908 45.2162 50.0083 46.5098 51.2434C47.8034 52.4784 48.4916 53.9604 48.5743 55.6892H71C70.9999 54.537 70.4252 53.961 69.2758 53.961ZM41.9202 58.2824C41.3448 58.2824 40.8518 58.0767 40.4414 57.6652C40.0308 57.2537 39.8255 56.7596 39.8256 56.1829C39.8255 55.566 40.0308 55.0619 40.4414 54.6705C40.8518 54.2792 41.3448 54.0835 41.9202 54.0835C42.4942 54.0835 42.9869 54.2792 43.398 54.6705C43.8091 55.0619 44.0147 55.566 44.0148 56.1829C44.0147 56.7596 43.8091 57.2537 43.398 57.6652C42.9869 58.0767 42.4942 58.2824 41.9202 58.2824ZM41.9202 51.3055C40.5639 51.3056 39.4135 51.7789 38.469 52.7256C37.5244 53.6723 37.0522 54.8248 37.0522 56.1829C37.0522 57.5009 37.5244 58.6332 38.469 59.5799C39.4135 60.5267 40.5639 61 41.9202 61C43.2338 61 44.3632 60.5267 45.3084 59.5799C46.2535 58.6332 46.726 57.5009 46.7261 56.1829C46.726 54.8248 46.2535 53.6723 45.3084 52.7256C44.3632 51.7789 43.2338 51.3056 41.9202 51.3055Z" fill="#0677E0"/>
<defs>
<radialGradient id="paint0_radial_512_522" cx="0" cy="0" r="1" gradientUnits="userSpaceOnUse" gradientTransform="translate(44.4944 137.958) rotate(90) scale(6.04196 32.3596)">
<stop/>
<stop offset="1" stop-opacity="0"/>
</radialGradient>
</defs>
</svg>
