<svg width="90" height="144" viewBox="0 0 90 144" fill="none" xmlns="http://www.w3.org/2000/svg">
<path d="M31.8453 105.324C28.0971 100.863 25.0272 97.0527 22.6356 93.8925C18.1708 87.992 14.1246 81.9316 10.4972 75.7114C8.81604 72.8301 7.20621 69.756 5.66774 66.4893C3.62742 62.1524 2.0811 57.7646 1.02879 53.3258C-0.0329246 48.8511 -0.272871 44.2627 0.308957 39.5607C1.12916 32.9316 3.30514 26.7914 6.83688 21.1399C10.3482 15.5245 14.8515 10.9182 20.3467 7.32081C24.912 4.33293 29.8614 2.24674 35.1951 1.06224C36.7007 0.726949 38.2478 0.471562 39.8364 0.296081C48.556 -0.669065 56.842 0.725382 64.6943 4.47942C66.1293 5.16568 67.5046 5.91852 68.8204 6.73796C73.7997 9.84021 78.0301 13.7846 81.5116 18.5712C85.3351 23.8278 87.8976 29.7283 89.1993 36.2728C89.5835 38.2 89.8235 40.0606 89.9191 41.8545C90.0054 43.4354 90.0226 45.003 89.9709 46.5573C89.905 48.5722 89.6517 50.5698 89.2111 52.5503C88.3391 56.4704 87.108 60.2753 85.5178 63.9651C84.0687 67.329 82.4377 70.6021 80.6248 73.7842C75.4714 82.8294 69.3364 91.7366 62.2196 100.506C56.3354 107.757 50.634 114.188 45.1152 119.799C45.0705 119.843 44.9952 119.843 44.9506 119.799C40.8182 115.629 36.4497 110.804 31.8453 105.324Z" fill="#0677E0"/>
<ellipse cx="44.4944" cy="46.3216" rx="33.3708" ry="33.2308" fill="white"/>
<mask id="mask0_271_386" style="mask-type:alpha" maskUnits="userSpaceOnUse" x="20" y="19" width="49" height="49">
<rect x="20.2247" y="19.1328" width="48.5393" height="48.3357" fill="#D9D9D9"/>
</mask>
<g mask="url(#mask0_271_386)">
<path d="M30.4382 58.456V60.0169C30.4382 60.773 30.1664 61.4067 29.6229 61.9182C29.0793 62.4297 28.4241 62.6854 27.6573 62.6854H27.809C27.0421 62.6854 26.3869 62.4148 25.8434 61.8735C25.2998 61.3323 25.0281 60.6798 25.0281 59.9162V43.3367L29.3764 30.3106C29.6123 29.5721 30.0391 28.9847 30.6566 28.5483C31.2741 28.112 31.9766 27.8938 32.764 27.8938H56.2247C57.0121 27.8938 57.7146 28.112 58.3321 28.5483C58.9496 28.9847 59.3764 29.5721 59.6123 30.3106L64.0112 43.3367V59.9162C64.0112 60.6798 63.7277 61.3323 63.1605 61.8735C62.5934 62.4148 61.9331 62.6854 61.1798 62.6854H61.2809C60.5056 62.6854 59.8567 62.4297 59.3343 61.9182C58.8118 61.4067 58.5505 60.773 58.5505 60.0169V58.456H30.4382ZM31.0449 40.5819H57.9944L55.3652 32.677H33.6236L31.0449 40.5819ZM34.9263 51.4071C35.6758 51.4071 36.3202 51.1427 36.8595 50.6141C37.3989 50.0854 37.6685 49.4434 37.6685 48.6882C37.6685 47.905 37.3946 47.2393 36.8469 46.691C36.2991 46.1427 35.6629 45.8686 34.9382 45.8686C34.118 45.8686 33.441 46.1416 32.9073 46.6876C32.3736 47.2335 32.1067 47.8964 32.1067 48.6764C32.1067 49.4563 32.3724 50.1064 32.9038 50.6267C33.4352 51.1469 34.1094 51.4071 34.9263 51.4071ZM54.1517 51.4071C54.9382 51.4071 55.6067 51.1427 56.1573 50.6141C56.7079 50.0854 56.9831 49.4434 56.9831 48.6882C56.9831 47.905 56.709 47.2393 56.1607 46.691C55.6125 46.1427 54.9468 45.8686 54.1636 45.8686C53.3804 45.8686 52.7275 46.1416 52.205 46.6876C51.6826 47.2335 51.4213 47.8964 51.4213 48.6764C51.4213 49.4563 51.6868 50.1064 52.2177 50.6267C52.7486 51.1469 53.3932 51.4071 54.1517 51.4071ZM29.7809 53.7232H59.2079V43.6029H29.7809V53.7232Z" fill="#0677E0"/>
</g>
<ellipse cx="44.4944" cy="137.958" rx="32.3596" ry="6.04196" fill="url(#paint0_radial_271_386)" fill-opacity="0.1"/>
<defs>
<radialGradient id="paint0_radial_271_386" cx="0" cy="0" r="1" gradientUnits="userSpaceOnUse" gradientTransform="translate(44.4944 137.958) rotate(90) scale(6.04196 32.3596)">
<stop/>
<stop offset="1" stop-opacity="0"/>
</radialGradient>
</defs>
</svg>
