<svg width="90" height="144" viewBox="0 0 90 144" fill="none" xmlns="http://www.w3.org/2000/svg">
<path d="M31.8453 105.324C28.0971 100.863 25.0272 97.0527 22.6356 93.8925C18.1708 87.992 14.1246 81.9316 10.4972 75.7114C8.81604 72.8301 7.20621 69.756 5.66774 66.4893C3.62742 62.1524 2.0811 57.7646 1.02879 53.3258C-0.0329246 48.8511 -0.272871 44.2627 0.308957 39.5607C1.12916 32.9316 3.30514 26.7914 6.83688 21.1399C10.3482 15.5245 14.8515 10.9182 20.3467 7.32081C24.912 4.33293 29.8614 2.24674 35.1951 1.06224C36.7007 0.726949 38.2478 0.471562 39.8364 0.296081C48.556 -0.669065 56.842 0.725382 64.6943 4.47942C66.1293 5.16568 67.5046 5.91852 68.8204 6.73796C73.7997 9.84021 78.0301 13.7846 81.5116 18.5712C85.3351 23.8278 87.8976 29.7283 89.1993 36.2728C89.5835 38.2 89.8235 40.0606 89.9191 41.8545C90.0054 43.4354 90.0226 45.003 89.9709 46.5573C89.905 48.5722 89.6517 50.5698 89.2111 52.5503C88.3391 56.4704 87.108 60.2753 85.5178 63.9651C84.0687 67.329 82.4377 70.6021 80.6248 73.7842C75.4714 82.8294 69.3364 91.7366 62.2196 100.506C56.3354 107.757 50.634 114.188 45.1152 119.799C45.0705 119.843 44.9952 119.843 44.9506 119.799C40.8182 115.629 36.4497 110.804 31.8453 105.324Z" fill="#0677E0"/>
<ellipse cx="44.4943" cy="46.3216" rx="33.3708" ry="33.2308" fill="white"/>
<mask id="mask0_271_385" style="mask-type:alpha" maskUnits="userSpaceOnUse" x="20" y="19" width="49" height="49">
<rect x="20.2247" y="19.1328" width="48.5393" height="48.3357" fill="#D9D9D9"/>
</mask>
<g mask="url(#mask0_271_385)">
<path d="M51.4907 29.6054C50.4192 29.6054 49.5162 29.2375 48.7816 28.5018C48.0471 27.766 47.6798 26.8695 47.6798 25.8123C47.6798 24.7551 48.0457 23.8642 48.7776 23.1397C49.5095 22.4152 50.4112 22.053 51.4826 22.053C52.5541 22.053 53.4607 22.4139 54.2023 23.1357C54.9438 23.8575 55.3146 24.7471 55.3146 25.8042C55.3146 26.8614 54.9452 27.7593 54.2063 28.4977C53.4674 29.2362 52.5622 29.6054 51.4907 29.6054ZM41.7135 39.8768L46.2135 44.5456V57.197H42.8764V47.0768L36.1011 41.0851C35.8315 40.8837 35.5702 40.5397 35.3174 40.053C35.0646 39.5663 34.9382 39.0712 34.9382 38.5677C34.9382 38.1649 35.0562 37.7201 35.2921 37.2334C35.5281 36.7467 35.7978 36.3523 36.1011 36.0502L42.118 30.0586C42.3539 29.8236 42.6994 29.5886 43.1545 29.3537C43.6096 29.1187 44.1265 29.0012 44.7052 29.0012C45.2839 29.0012 45.8317 29.0935 46.3484 29.2782C46.8652 29.4628 47.2921 29.7229 47.6292 30.0586L51.573 33.9858C52.4832 34.8921 53.5709 35.6558 54.8362 36.2768C56.1016 36.8977 57.5251 37.2082 59.1068 37.2082V40.5313C57.0316 40.5313 55.1813 40.1453 53.556 39.3733C51.9307 38.6012 50.4607 37.5775 49.1461 36.3019L47.1489 34.439L41.7135 39.8768ZM30.589 44.0054C33.2791 44.0054 35.5614 44.9401 37.4357 46.8095C39.31 48.679 40.2472 50.9531 40.2472 53.6319C40.2472 56.3108 39.3086 58.5733 37.4313 60.4194C35.554 62.2656 33.2703 63.1886 30.5801 63.1886C27.89 63.1886 25.618 62.2641 23.7641 60.415C21.9101 58.5659 20.9832 56.302 20.9832 53.6231C20.9832 50.9443 21.9116 48.6716 23.7685 46.8051C25.6254 44.9387 27.8989 44.0054 30.589 44.0054ZM30.6152 59.8656C32.4185 59.8656 33.9185 59.2698 35.1152 58.0782C36.3118 56.8865 36.9101 55.4012 36.9101 53.6222C36.9101 51.8432 36.314 50.3579 35.1217 49.1663C33.9294 47.9747 32.4188 47.3789 30.5899 47.3789C28.8034 47.3789 27.3118 47.9747 26.1152 49.1663C24.9185 50.3579 24.3202 51.8432 24.3202 53.6222C24.3202 55.4012 24.9185 56.8865 26.1152 58.0782C27.3118 59.2698 28.8118 59.8656 30.6152 59.8656ZM58.4086 44.0054C61.0988 44.0054 63.3708 44.9401 65.2247 46.8095C67.0787 48.679 68.0056 50.9531 68.0056 53.6319C68.0056 56.3108 67.0772 58.5733 65.2203 60.4194C63.3634 62.2656 61.0899 63.1886 58.3998 63.1886C55.7097 63.1886 53.4274 62.2641 51.5531 60.415C49.6787 58.5659 48.7416 56.302 48.7416 53.6231C48.7416 50.9443 49.6802 48.6716 51.5575 46.8051C53.4348 44.9387 55.7185 44.0054 58.4086 44.0054ZM58.3989 59.8656C60.1854 59.8656 61.677 59.2698 62.8736 58.0782C64.0702 56.8865 64.6685 55.4012 64.6685 53.6222C64.6685 51.8432 64.0702 50.3579 62.8736 49.1663C61.677 47.9747 60.177 47.3789 58.3736 47.3789C56.5702 47.3789 55.0787 47.9747 53.8989 49.1663C52.7191 50.3579 52.1292 51.8432 52.1292 53.6222C52.1292 55.4012 52.7204 56.8865 53.9027 58.0782C55.085 59.2698 56.5837 59.8656 58.3989 59.8656Z" fill="#0677E0"/>
</g>
<ellipse cx="44.4944" cy="137.958" rx="32.3596" ry="6.04196" fill="url(#paint0_radial_271_385)" fill-opacity="0.1"/>
<defs>
<radialGradient id="paint0_radial_271_385" cx="0" cy="0" r="1" gradientUnits="userSpaceOnUse" gradientTransform="translate(44.4944 137.958) rotate(90) scale(6.04196 32.3596)">
<stop/>
<stop offset="1" stop-opacity="0"/>
</radialGradient>
</defs>
</svg>
