<svg width="90" height="144" viewBox="0 0 90 144" fill="none" xmlns="http://www.w3.org/2000/svg">
<path d="M31.8453 105.324C28.0971 100.863 25.0272 97.0527 22.6356 93.8925C18.1708 87.992 14.1246 81.9316 10.4972 75.7114C8.81604 72.8301 7.20621 69.756 5.66774 66.4893C3.62742 62.1524 2.0811 57.7646 1.02879 53.3258C-0.0329246 48.8511 -0.272871 44.2627 0.308957 39.5607C1.12916 32.9316 3.30514 26.7914 6.83688 21.1399C10.3482 15.5245 14.8515 10.9182 20.3467 7.32081C24.912 4.33293 29.8614 2.24674 35.1951 1.06224C36.7007 0.726949 38.2478 0.471562 39.8364 0.296081C48.556 -0.669065 56.842 0.725382 64.6943 4.47942C66.1293 5.16568 67.5046 5.91852 68.8204 6.73796C73.7997 9.84021 78.0301 13.7846 81.5116 18.5712C85.3351 23.8278 87.8976 29.7283 89.1993 36.2728C89.5835 38.2 89.8235 40.0606 89.9191 41.8545C90.0054 43.4354 90.0226 45.003 89.9709 46.5573C89.905 48.5722 89.6517 50.5698 89.2111 52.5503C88.3391 56.4704 87.108 60.2753 85.5178 63.9651C84.0687 67.329 82.4377 70.6021 80.6248 73.7842C75.4714 82.8294 69.3364 91.7366 62.2196 100.506C56.3354 107.757 50.634 114.188 45.1152 119.799C45.0705 119.843 44.9952 119.843 44.9506 119.799C40.8182 115.629 36.4497 110.804 31.8453 105.324Z" fill="#0677E0"/>
<ellipse cx="44.4944" cy="46.3216" rx="33.3708" ry="33.2308" fill="white"/>
<mask id="mask0_271_387" style="mask-type:alpha" maskUnits="userSpaceOnUse" x="20" y="22" width="49" height="49">
<rect x="20.2247" y="22.1538" width="48.5393" height="48.3357" fill="#D9D9D9"/>
</mask>
<g mask="url(#mask0_271_387)">
<path d="M30.4382 53.572V55.0825C30.4382 55.8856 30.1664 56.5395 29.6229 57.0443C29.0793 57.549 28.4241 57.8014 27.6573 57.8014H27.809C27.0421 57.8014 26.3869 57.5224 25.8434 56.9643C25.2998 56.4063 25.0281 55.7454 25.0281 54.9818V38.4527L29.3764 25.3762C29.5786 24.6377 29.9929 24.0587 30.6192 23.6391C31.2455 23.2196 31.9604 23.0098 32.764 23.0098H56.2247C57.0283 23.0098 57.7432 23.2196 58.3695 23.6391C58.9958 24.0587 59.4101 24.6377 59.6123 25.3762L64.0112 38.4527V54.9818C64.0112 55.7454 63.731 56.4063 63.1706 56.9643C62.6102 57.5224 61.9466 57.8014 61.1798 57.8014H61.2809C60.514 57.8014 59.8588 57.549 59.3153 57.0443C58.7718 56.5395 58.5 55.8856 58.5 55.0825V53.572H30.4382ZM31.0449 35.6475H57.9944L55.3652 27.7426H33.6236L31.0449 35.6475ZM34.9263 46.5231C35.6758 46.5231 36.3202 46.2503 36.8595 45.7049C37.3989 45.1594 37.6685 44.5259 37.6685 43.8042C37.6685 42.9874 37.3946 42.3133 36.8469 41.7818C36.2991 41.2503 35.6629 40.9846 34.9382 40.9846C34.118 40.9846 33.441 41.2492 32.9073 41.7784C32.3736 42.3075 32.1067 42.9788 32.1067 43.7923C32.1067 44.5387 32.3724 45.1804 32.9038 45.7175C33.4352 46.2545 34.1094 46.5231 34.9263 46.5231ZM54.1517 46.5231C54.9382 46.5231 55.6067 46.2503 56.1573 45.7049C56.7079 45.1594 56.9831 44.5259 56.9831 43.8042C56.9831 42.9874 56.709 42.3133 56.1607 41.7818C55.6125 41.2503 54.9468 40.9846 54.1636 40.9846C53.3804 40.9846 52.7275 41.2492 52.205 41.7784C51.6826 42.3075 51.4213 42.9788 51.4213 43.7923C51.4213 44.5387 51.6868 45.1804 52.2177 45.7175C52.7486 46.2545 53.3932 46.5231 54.1517 46.5231ZM46.4663 68.9286L34.3314 62.5846H42.3202V58.4559L54.7079 64.6489H46.4663V68.9286ZM29.7809 48.7888H59.2079V38.6685H29.7809V48.7888Z" fill="#0677E0"/>
</g>
<ellipse cx="44.4944" cy="137.958" rx="32.3596" ry="6.04196" fill="url(#paint0_radial_271_387)" fill-opacity="0.1"/>
<defs>
<radialGradient id="paint0_radial_271_387" cx="0" cy="0" r="1" gradientUnits="userSpaceOnUse" gradientTransform="translate(44.4944 137.958) rotate(90) scale(6.04196 32.3596)">
<stop/>
<stop offset="1" stop-opacity="0"/>
</radialGradient>
</defs>
</svg>
