<svg width="90" height="144" viewBox="0 0 90 144" fill="none" xmlns="http://www.w3.org/2000/svg">
<path d="M31.8453 105.324C28.0971 100.863 25.0272 97.0527 22.6356 93.8925C18.1708 87.992 14.1246 81.9316 10.4972 75.7114C8.81604 72.8301 7.20621 69.756 5.66774 66.4893C3.62742 62.1524 2.0811 57.7646 1.02879 53.3258C-0.0329246 48.8511 -0.272871 44.2627 0.308957 39.5607C1.12916 32.9316 3.30514 26.7914 6.83688 21.1399C10.3482 15.5245 14.8515 10.9182 20.3467 7.32081C24.912 4.33293 29.8614 2.24674 35.1951 1.06224C36.7007 0.726949 38.2478 0.471562 39.8364 0.296081C48.556 -0.669065 56.842 0.725382 64.6943 4.47942C66.1293 5.16568 67.5046 5.91852 68.8204 6.73796C73.7997 9.84021 78.0301 13.7846 81.5116 18.5712C85.3351 23.8278 87.8976 29.7283 89.1993 36.2728C89.5835 38.2 89.8235 40.0606 89.9191 41.8545C90.0054 43.4354 90.0226 45.003 89.9709 46.5573C89.905 48.5722 89.6517 50.5698 89.2111 52.5503C88.3391 56.4704 87.108 60.2753 85.5178 63.9651C84.0687 67.329 82.4377 70.6021 80.6248 73.7842C75.4714 82.8294 69.3364 91.7366 62.2196 100.506C56.3354 107.757 50.634 114.188 45.1152 119.799C45.0705 119.843 44.9952 119.843 44.9506 119.799C40.8182 115.629 36.4497 110.804 31.8453 105.324Z" fill="#E2577C"/>
<ellipse cx="44.4943" cy="46.3216" rx="33.3708" ry="33.2308" fill="white"/>
<mask id="mask0_449_528" style="mask-type:alpha" maskUnits="userSpaceOnUse" x="20" y="19" width="49" height="49">
<rect x="20.2247" y="19.1328" width="48.5393" height="48.3357" fill="#D9D9D9"/>
</mask>
<g mask="url(#mask0_449_528)">
<path d="M44.6461 62.6853V57.9524H59.7641V28.6489H44.6461V23.8657H59.7641C61.045 23.8657 62.1573 24.3318 63.1011 25.2639C64.045 26.196 64.5169 27.3243 64.5169 28.6489V57.9524C64.5169 59.2632 64.045 60.3797 63.1011 61.3019C62.1573 62.2242 61.045 62.6853 59.7641 62.6853H44.6461ZM39.8933 53.9245L36.4551 50.6014L41.3596 45.6671H24.4719V40.9343H41.2584L36.3539 36L39.7922 32.6769L50.5113 43.351L39.8933 53.9245Z" fill="#E2577C"/>
</g>
<ellipse cx="44.4943" cy="137.958" rx="32.3596" ry="6.04196" fill="url(#paint0_radial_449_528)" fill-opacity="0.1"/>
<defs>
<radialGradient id="paint0_radial_449_528" cx="0" cy="0" r="1" gradientUnits="userSpaceOnUse" gradientTransform="translate(44.4943 137.958) rotate(90) scale(6.04196 32.3596)">
<stop/>
<stop offset="1" stop-opacity="0"/>
</radialGradient>
</defs>
</svg>
